# xmcd CD database file
#
# Track frame offsets:
#	150
#	12847
#	25510
#	37279
#	50026
#	64269
#	75419
#	86392
#	96849
#	108342
#	119164
#	131283
#	141921
#	152055
#	162973
#	175387
#	186486
#	198790
#	211576
#	221815
#
# Disc length: 3101 seconds
#
# Revision: 0
# Processed by: cddbd v1.5.1PL2 Copyright (c) Steve Scherf et al.
# Submitted via: CDex 1.50beta10
#
DISCID=180c1b14
DTITLE=Jimmy Reid - Big Boss Man
DYEAR=2001
DGENRE=Blues
TTITLE0=Big boss man
TTITLE1=I found my baby
TTITLE2=She don't go for that
TTITLE3=The sun is shining
TTITLE4=Little rain
TTITLE5=Odds and ends
TTITLE6=The Moon is rising
TTITLE7=I told you baby
TTITLE8=Hush-hush
TTITLE9=Baby, what do you want me to do
TTITLE10=Bright lights, big city
TTITLE11=Take out some insurance
TTITLE12=Ain't that lovin' you baby
TTITLE13=Down in Virginia
TTITLE14=I love you baby
TTITLE15=Good lover
TTITLE16=Tell me you love me
TTITLE17=Shame, shame, shame
TTITLE18=I wanna be loved
TTITLE19=Too much
EXTD=YEAR: 2001
EXTT0=
EXTT1=
EXTT2=
EXTT3=
EXTT4=
EXTT5=
EXTT6=
EXTT7=
EXTT8=
EXTT9=
EXTT10=
EXTT11=
EXTT12=
EXTT13=
EXTT14=
EXTT15=
EXTT16=
EXTT17=
EXTT18=
EXTT19=
PLAYORDER=
